<svg xmlns="http://www.w3.org/2000/svg" width="1200" height="760" viewBox="0 0 1200 760" role="img" aria-labelledby="title desc">
<title id="title">Starter media map</title><desc id="desc">Photo first, video ready, fast handoff</desc>
<defs><linearGradient id="g" x1="0" y1="0" x2="1" y2="1"><stop stop-color="#f7efe4"/><stop offset="1" stop-color="#fffaf2" stop-opacity="0.9"/></linearGradient><filter id="s" x="-20%" y="-20%" width="140%" height="140%"><feDropShadow dx="0" dy="24" stdDeviation="28" flood-color="#140f0a" flood-opacity="0.18"/></filter></defs>
<rect width="1200" height="760" fill="url(#g)"/><path d="M0 570 C240 460 410 650 640 520 C880 384 1010 450 1200 330 L1200 760 L0 760 Z" fill="#a36d3a" opacity="0.16"/>
<g filter="url(#s)"><rect x="90" y="88" width="1020" height="540" rx="48" fill="#fffaf2" fill-opacity="0.88" stroke="#a36d3a" stroke-width="3"/><text x="140" y="178" font-family="Inter, Arial" font-size="34" font-weight="900" fill="#a36d3a" letter-spacing="6">READYMADEVIDEO</text><text x="140" y="246" font-family="Georgia, serif" font-size="70" font-weight="700" fill="#14100c">Starter media map</text><text x="140" y="304" font-family="Inter, Arial" font-size="30" font-weight="700" fill="#14100c" opacity="0.72">Photo first, video ready, fast handoff</text><g><rect x="70" y="240" width="150" height="120" rx="24" fill="#fffaf2" fill-opacity="0.88" stroke="#a36d3a" stroke-width="2"/><circle cx="105" cy="280" r="16" fill="#a36d3a"/><path d="M90 330 C122 296,158 372,203 312" fill="none" stroke="#14100c" stroke-width="7" stroke-linecap="round"/></g><g><rect x="260" y="240" width="150" height="120" rx="24" fill="#fffaf2" fill-opacity="0.88" stroke="#a36d3a" stroke-width="2"/><circle cx="295" cy="280" r="16" fill="#a36d3a"/><path d="M280 330 C312 296,348 372,393 312" fill="none" stroke="#14100c" stroke-width="7" stroke-linecap="round"/></g><g><rect x="450" y="240" width="150" height="120" rx="24" fill="#fffaf2" fill-opacity="0.88" stroke="#a36d3a" stroke-width="2"/><circle cx="485" cy="280" r="16" fill="#a36d3a"/><path d="M470 330 C502 296,538 372,583 312" fill="none" stroke="#14100c" stroke-width="7" stroke-linecap="round"/></g><g><rect x="640" y="240" width="150" height="120" rx="24" fill="#fffaf2" fill-opacity="0.88" stroke="#a36d3a" stroke-width="2"/><circle cx="675" cy="280" r="16" fill="#a36d3a"/><path d="M660 330 C692 296,728 372,773 312" fill="none" stroke="#14100c" stroke-width="7" stroke-linecap="round"/></g><path d="M900 190 l120 52 -120 52 -120 -52 z" fill="#a36d3a" opacity="0.92"/><path d="M900 190 v104" stroke="#fffaf2" stroke-width="8" opacity="0.75"/><circle cx="900" cy="242" r="42" fill="#fffaf2" opacity="0.94"/><path d="M878 242 h44 M900 220 v44" stroke="#a36d3a" stroke-width="8" stroke-linecap="round"/></g>
</svg>